<svg xmlns="http://www.w3.org/2000/svg" viewBox="0 0 64 48" fill="none">
  <ellipse cx="32" cy="28" rx="16" ry="10" fill="#ef5350"/>
  <ellipse cx="32" cy="28" rx="12" ry="7" fill="#ef9a9a" opacity="0.4"/>
  <circle cx="22" cy="14" r="4" fill="#ef5350"/>
  <circle cx="42" cy="14" r="4" fill="#ef5350"/>
  <circle cx="22" cy="13" r="2" fill="#ffebee"/>
  <circle cx="42" cy="13" r="2" fill="#ffebee"/>
  <circle cx="22" cy="13" r="1" fill="#b71c1c"/>
  <circle cx="42" cy="13" r="1" fill="#b71c1c"/>
  <path d="M22 18V22" stroke="#ef5350" stroke-width="2" stroke-linecap="round"/>
  <path d="M42 18V22" stroke="#ef5350" stroke-width="2" stroke-linecap="round"/>
  <path d="M16 26c-6-2-10 0-12 4" stroke="#ef5350" stroke-width="3" fill="none" stroke-linecap="round"/>
  <path d="M48 26c6-2 10 0 12 4" stroke="#ef5350" stroke-width="3" fill="none" stroke-linecap="round"/>
  <path d="M4 30l-2-4" stroke="#ef5350" stroke-width="2.5" stroke-linecap="round"/>
  <path d="M60 30l2-4" stroke="#ef5350" stroke-width="2.5" stroke-linecap="round"/>
  <path d="M24 38l-2 4M28 40l0 4M36 40l0 4M40 38l2 4" stroke="#ef5350" stroke-width="1.5" stroke-linecap="round"/>
</svg>
