<svg xmlns="http://www.w3.org/2000/svg" viewBox="0 0 64 64" fill="none">
  <ellipse cx="32" cy="22" rx="18" ry="16" fill="#7e57c2"/>
  <ellipse cx="32" cy="22" rx="14" ry="12" fill="#9575cd" opacity="0.6"/>
  <circle cx="24" cy="18" r="3" fill="#ede7f6"/>
  <circle cx="40" cy="18" r="3" fill="#ede7f6"/>
  <circle cx="24" cy="18" r="1.5" fill="#311b92"/>
  <circle cx="40" cy="18" r="1.5" fill="#311b92"/>
  <path d="M28 26c2 2 6 2 8 0" stroke="#4a148c" stroke-width="1.2" fill="none" stroke-linecap="round"/>
  <path d="M16 34c-4 8-8 16-2 20" stroke="#7e57c2" stroke-width="3" fill="none" stroke-linecap="round"/>
  <path d="M22 36c-2 8-4 14 0 18" stroke="#9575cd" stroke-width="2.5" fill="none" stroke-linecap="round"/>
  <path d="M32 38c0 8 0 14 2 18" stroke="#7e57c2" stroke-width="3" fill="none" stroke-linecap="round"/>
  <path d="M42 36c2 8 4 14 0 18" stroke="#9575cd" stroke-width="2.5" fill="none" stroke-linecap="round"/>
  <path d="M48 34c4 8 8 16 2 20" stroke="#7e57c2" stroke-width="3" fill="none" stroke-linecap="round"/>
</svg>
